PathFileType  4	(X/Y/Z) C:\Users\antoi\Documents\MyRepositories\mobilecap\ResultsAnalysis
DataRate	CameraRate	NumFrames	NumMarkers	Units	OrigDataRate	OrigDataStartFrame	OrigNumFrames
100.0	100.0	6	51	mm	100.0	136	181
Frame#	Time	r_knee			r_shank_antsup			r_ankle			r_calc			r_5meta			r_toe			L_knee			L_shank_antsup			L_ankle			L_calc			L_5meta			L_toe			r_sh2			r_sh3			r_sh4			L_sh2			L_sh3			r_thigh1			r_thigh2			r_thigh3			r_thigh4			r_thigh5			L_thigh1			L_thigh2			L_thigh3			L_thigh4			r.ASIS			r.PSIS			L.ASIS			L.PSIS			C7			R_Shoulder			L_Shoulder			R_Sternum			L_Sternum			R_humerus			R_elbow_med			R_elbow_lat			R_forearm			R_wrist_radius			R_wrist_ulna			L_humerus			L_elbow_med			L_elbow_lat			L_forearm			L_wrist_radius			L_wrist_ulna			R_HJC			L_HJC			R_HJC_reg			L_HJC_reg			
		X1	Y1	Z1	X2	Y2	Z2	X3	Y3	Z3	X4	Y4	Z4	X5	Y5	Z5	X6	Y6	Z6	X7	Y7	Z7	X8	Y8	Z8	X9	Y9	Z9	X10	Y10	Z10	X11	Y11	Z11	X12	Y12	Z12	X13	Y13	Z13	X14	Y14	Z14	X15	Y15	Z15	X16	Y16	Z16	X17	Y17	Z17	X18	Y18	Z18	X19	Y19	Z19	X20	Y20	Z20	X21	Y21	Z21	X22	Y22	Z22	X23	Y23	Z23	X24	Y24	Z24	X25	Y25	Z25	X26	Y26	Z26	X27	Y27	Z27	X28	Y28	Z28	X29	Y29	Z29	X30	Y30	Z30	X31	Y31	Z31	X32	Y32	Z32	X33	Y33	Z33	X34	Y34	Z34	X35	Y35	Z35	X36	Y36	Z36	X37	Y37	Z37	X38	Y38	Z38	X39	Y39	Z39	X40	Y40	Z40	X41	Y41	Z41	X42	Y42	Z42	X43	Y43	Z43	X44	Y44	Z44	X45	Y45	Z45	X46	Y46	Z46	X47	Y47	Z47	X48	Y48	Z48	X49	Y49	Z49	X50	Y50	Z50	X51	Y51	Z51	

136	1.35000000	1226.84175	479.69568	-70.70263	1305.98109	394.36208	-92.97719	1340.60630	116.66158	-134.06187	1308.23278	65.61033	-185.55041	1465.89709	114.77990	-109.54245	1487.39099	155.35920	-149.13534	919.70929	481.71072	-335.79480	945.31317	374.35734	-300.67259	817.00138	99.09554	-269.45532	774.45485	73.17153	-219.00880	935.89936	33.61846	-274.67540	978.66408	57.40539	-228.13137	1333.54630	287.21497	-115.58334	1252.26450	367.10168	-44.28274	1264.89826	259.51711	-75.53842	879.91428	402.38620	-351.38142	847.32098	287.68354	-350.96468	1165.19263	782.39006	-52.82535	1220.53829	687.12247	-60.14842	1193.28805	641.84251	-15.86131	1078.96699	731.05875	-4.19769	1137.30775	630.50524	-10.84100	1059.42319	752.52994	-374.38821	1040.73595	617.64758	-365.74691	949.73770	771.94134	-391.74064	927.94091	634.51778	-369.69860	1148.45202	920.66842	-92.79425	962.90968	970.53188	-128.20911	1121.56883	920.95948	-336.66781	946.15437	978.99523	-242.84435	1001.15744	1414.03815	-297.01109	1073.51168	1408.09070	-146.15183	1029.99377	1337.74820	-443.59576	1119.74205	1347.10546	-278.26748	1111.88474	1333.37348	-320.20731	1084.13762	1300.56709	-50.71250	974.91013	1114.21628	-38.43850	1014.80182	1129.41996	23.50766	1062.72391	1013.48822	54.05885	1089.08534	912.63037	66.54621	1059.52669	911.78805	91.13411	1050.22666	1186.11772	-484.27535	1011.14210	995.52457	-407.19735	1015.65910	999.56469	-479.19403	1081.25557	924.31407	-502.37080	1152.98288	815.89261	-490.28399	1125.68952	799.40706	-498.76481	1054.98083	852.73229	-104.41218	1032.77498	853.06921	-292.48369	1073.10736	846.31729	-121.74296	1049.75147	858.11441	-281.54570	
137	1.36000000	1230.93899	477.36457	-72.52351	1311.57949	393.45403	-94.52779	1352.18514	116.95254	-139.13159	1321.39302	66.26506	-191.48564	1477.60807	116.63399	-113.06374	1498.88782	158.20129	-151.46086	924.53987	481.78344	-336.29643	949.22821	374.02038	-301.41943	817.82965	100.17620	-269.74661	775.12035	74.67814	-219.18815	935.98679	33.63951	-274.47281	979.00381	56.81772	-228.13684	1341.35067	287.05578	-118.21045	1257.77521	364.50965	-47.04097	1272.68773	257.59267	-79.89582	884.22585	402.77508	-352.03980	850.32520	288.52934	-351.49475	1171.84142	780.42716	-53.16689	1226.27301	684.55091	-60.89633	1198.48513	639.20913	-17.05543	1084.79294	729.54274	-5.27279	1142.18570	628.43921	-12.46676	1066.25386	751.72201	-375.25307	1046.75828	616.96585	-366.64116	956.67334	771.75225	-392.39741	933.90359	634.63664	-370.42110	1156.25424	919.23174	-93.40750	970.94613	969.94944	-129.05555	1129.59001	919.88510	-337.42668	954.24505	978.71467	-243.75195	1010.24444	1413.75766	-295.60274	1082.16867	1406.79230	-144.54801	1039.49794	1338.34830	-442.53496	1128.72435	1346.56229	-276.83753	1121.01796	1333.06918	-318.89885	1092.16858	1298.90652	-49.58348	982.73874	1112.67130	-38.42004	1022.17421	1127.73347	23.84046	1069.88632	1011.72919	54.43125	1096.16749	910.78359	66.83331	1066.43274	909.93656	91.20821	1059.46426	1186.75795	-483.53562	1019.22302	996.16301	-407.42500	1024.51791	1000.38034	-479.39026	1089.55384	924.64965	-502.17641	1159.69883	815.45656	-489.41842	1132.48256	799.17034	-498.74080	1062.42243	851.74202	-105.28320	1040.42683	852.37944	-293.37830	1080.66536	845.10403	-122.54960	1057.38843	857.31989	-282.41313	
138	1.37000000	1235.19695	475.07600	-74.47714	1316.91053	392.19118	-96.20354	1362.49020	117.05458	-144.00205	1333.29430	66.58528	-197.22620	1488.10138	117.71929	-116.62250	1509.23955	160.15880	-153.80744	929.46686	481.82311	-336.79920	953.30657	373.60882	-302.24221	818.72333	101.28415	-270.14472	775.80405	76.26039	-219.47880	936.16908	33.68699	-274.30803	979.22774	56.13728	-228.17573	1348.49979	286.54894	-120.96960	1263.09341	361.88356	-49.90428	1279.87613	255.53416	-84.27625	888.80147	403.11592	-352.84777	853.53850	289.33647	-352.16582	1178.58265	778.49880	-53.53181	1232.10874	682.06479	-61.72937	1203.84950	636.63298	-18.35050	1090.78102	728.00044	-6.39490	1147.28692	626.37020	-14.18570	1073.21859	750.89335	-376.19087	1052.94415	616.26261	-367.64599	963.73971	771.55400	-393.14328	939.97779	634.78232	-371.20636	1164.12901	917.72995	-94.02922	979.06062	969.30579	-129.94484	1137.74033	918.79501	-338.21454	962.38713	978.44673	-244.71019	1019.53801	1413.45796	-294.06217	1091.04268	1405.38510	-142.81517	1049.28719	1338.95416	-441.37057	1137.92219	1345.95682	-275.30137	1130.39381	1332.74811	-317.47744	1100.37041	1297.10268	-48.37186	990.63541	1111.03232	-38.33801	1029.69952	1125.91165	24.18920	1077.19104	1009.79839	54.74471	1103.37695	908.74945	67.00811	1073.49850	907.89288	91.18219	1068.93430	1187.38665	-482.71853	1027.37547	996.82855	-407.58960	1033.36158	1001.25385	-479.53771	1097.79632	924.95097	-501.96846	1166.20810	814.89802	-488.57349	1139.10904	798.90209	-498.76250	1069.91966	850.69686	-106.21062	1048.17458	851.68389	-294.33277	1088.34266	843.78316	-123.40387	1065.10962	856.51959	-283.32431	
139	1.38000000	1239.69648	472.85668	-76.55392	1322.09689	390.58472	-98.01476	1371.43717	116.89326	-148.57572	1343.84003	66.40450	-202.70904	1497.33745	117.94104	-120.24804	1518.35947	161.10635	-156.30047	934.56933	481.80824	-337.36655	957.59064	373.11678	-303.12375	819.69566	102.41208	-270.64403	776.50897	77.91105	-219.87979	936.42016	33.73995	-274.17477	979.38291	55.39252	-228.24026	1354.97812	285.63984	-123.89934	1268.22608	359.23885	-52.85373	1286.48680	253.33822	-88.60319	893.64954	403.39061	-353.81034	856.97470	290.08437	-352.97651	1185.45036	776.61523	-53.94657	1238.08985	679.68109	-62.66483	1209.42380	634.14607	-19.75042	1096.99499	726.44717	-7.58834	1152.68355	624.32249	-15.97499	1080.30871	750.02921	-377.19909	1059.29095	615.52307	-368.76392	970.92963	771.33424	-393.97760	946.18924	634.91583	-372.03886	1172.07613	916.16629	-94.66998	987.26764	968.60180	-130.87083	1146.02905	917.69590	-339.03585	970.62199	978.17226	-245.70249	1029.03168	1413.13875	-292.38527	1100.12620	1403.86577	-140.95529	1059.35339	1339.56380	-440.10473	1147.31394	1345.28140	-273.65592	1140.00287	1332.40698	-315.94767	1108.75684	1295.15011	-47.06563	998.60626	1109.29716	-38.20154	1037.38156	1123.95141	24.55245	1084.62932	1007.68729	55.00254	1110.71517	906.54067	67.07527	1080.70775	905.65618	91.05650	1078.64479	1188.01201	-481.84017	1035.60349	997.52185	-407.69654	1042.23536	1002.16992	-479.63186	1105.98014	925.21734	-501.75464	1172.55996	814.21673	-487.80663	1145.58904	798.59242	-498.83686	1077.49423	849.59409	-107.19421	1056.03641	850.98125	-295.34617	1096.12691	842.37886	-124.31705	1072.93763	855.71099	-284.29272	
140	1.39000000	1244.51832	470.72736	-78.74037	1327.26334	388.66017	-99.98176	1378.95794	116.37882	-152.77390	1352.88828	65.59171	-207.85259	1505.26917	117.22915	-123.94493	1526.16568	160.93123	-159.05000	939.94645	481.71096	-338.07534	962.12331	372.54437	-304.04776	820.75354	103.55663	-271.23815	777.24097	79.62309	-220.38723	936.71403	33.78184	-274.06576	979.54919	54.64038	-228.31735	1360.81307	284.28299	-127.00228	1273.21247	356.59842	-55.85165	1292.55658	251.03433	-92.76546	898.77200	403.58252	-354.92224	860.64198	290.76392	-353.92015	1192.47817	774.78055	-54.44289	1244.26462	677.40388	-63.71840	1215.24690	631.76841	-21.25623	1103.48549	724.89131	-8.88555	1158.42048	622.32096	-17.81463	1087.52791	749.11603	-378.27214	1065.80372	614.73361	-369.98660	978.23819	771.07437	-394.89701	952.56751	634.98421	-372.91814	1180.09942	914.54799	-95.34340	995.57549	967.84243	-131.82826	1154.45538	916.58390	-339.89396	978.99331	977.86209	-246.71836	1038.71754	1412.79800	-290.56771	1109.40477	1402.23554	-138.97086	1069.68176	1340.18030	-438.74032	1156.87024	1344.53082	-271.89448	1149.81554	1332.03208	-314.31154	1117.33279	1293.04560	-45.64656	1006.68431	1107.46467	-38.03725	1045.21912	1121.85070	24.93053	1092.19063	1005.39410	55.20940	1118.17986	904.16976	67.04232	1088.04067	903.23207	90.83363	1088.59512	1188.64377	-480.90335	1043.90967	998.24713	-407.75231	1051.17644	1003.11825	-479.67202	1114.11119	925.45842	-501.54322	1178.79681	813.43097	-487.16624	1151.94011	798.24273	-498.96858	1085.16828	848.43477	-108.22901	1064.02653	850.26003	-296.41253	1103.99511	840.92510	-125.29774	1080.89713	854.88127	-285.33087	
141	1.40000000	1249.73127	468.69641	-81.02065	1332.51014	386.44680	-102.13407	1385.01464	115.40149	-156.56235	1360.26656	64.07102	-212.56568	1511.84849	115.54118	-127.69846	1532.60110	159.55585	-162.12850	945.67493	481.50445	-338.98313	966.92921	371.89750	-305.00747	821.89920	104.71842	-271.92401	778.00854	81.39239	-220.99791	937.03070	33.80355	-273.97642	979.79619	53.93718	-228.39590	1366.09120	282.45390	-130.23593	1278.12881	353.99034	-58.84410	1298.12350	248.67148	-96.63661	904.16123	403.68184	-356.16915	864.53366	291.37448	-354.98599	1199.70016	772.99391	-55.05575	1250.68176	675.22930	-64.90411	1221.35659	629.50678	-22.87008	1110.29285	723.33228	-10.32104	1164.50729	620.38914	-19.68672	1094.89048	748.14409	-379.40350	1072.49363	613.88416	-371.29560	985.66981	770.75515	-395.90060	959.14426	634.93255	-373.86289	1188.21346	912.88629	-96.06344	1003.98902	967.03139	-132.81614	1163.00957	915.44483	-340.79302	987.53138	977.48496	-247.75742	1048.58863	1412.42924	-288.61040	1118.86108	1400.49876	-136.86494	1080.25564	1340.81022	-437.27936	1166.56720	1343.70335	-270.01130	1159.78801	1331.60032	-312.56922	1126.08924	1290.78722	-44.09362	1014.90077	1105.53613	-37.86907	1053.20435	1119.60901	25.32418	1099.86602	1002.92491	55.37050	1125.76510	901.64747	66.91919	1095.47795	900.62964	90.51846	1098.77556	1189.29006	-479.90085	1052.29685	999.01127	-407.76369	1060.20327	1004.09814	-479.66194	1122.20341	925.69358	-501.34246	1184.94557	812.57465	-486.67704	1158.17824	797.87135	-499.16224	1092.96464	847.22350	-109.30801	1072.15394	849.50022	-297.52338	1111.93335	839.45001	-126.34910	1089.00923	854.01011	-286.44578	
